<svg id="svg" version="1.1" xmlns="http://www.w3.org/2000/svg" xmlns:xlink="http://www.w3.org/1999/xlink" width="400" height="400" viewBox="0, 0, 400,400"><g id="svgg"><path id="path0" d="M166.211 103.933 C 85.000 157.011,18.523 200.559,18.485 200.707 C 18.446 200.855,85.419 242.829,167.313 293.982 L 316.211 386.987 316.332 370.935 C 316.399 362.106,316.338 352.065,316.197 348.620 L 315.940 342.358 204.667 272.647 C 96.049 204.600,93.416 202.923,94.353 202.354 C 95.544 201.632,95.545 201.494,94.362 200.774 C 93.436 200.210,96.149 198.402,203.933 127.789 L 314.453 55.382 314.453 31.402 C 314.453 18.213,314.321 7.424,314.160 7.426 C 313.999 7.428,247.422 50.856,166.211 103.933 " stroke="none" fill="#fb1b04" fill-rule="evenodd"></path><path id="path1" d="M331.641 43.987 C 328.955 45.830,326.494 47.446,326.172 47.576 C 325.850 47.707,322.422 49.953,318.555 52.567 C 314.688 55.181,262.744 89.271,203.125 128.322 C 143.506 167.374,94.435 199.527,94.078 199.773 C 93.535 200.147,109.653 210.383,193.297 262.782 C 248.224 297.192,303.427 331.778,315.970 339.640 L 338.776 353.935 338.513 293.471 C 338.368 260.216,338.176 226.592,338.086 218.750 C 337.995 210.908,337.798 177.422,337.647 144.336 C 337.496 111.250,337.344 81.367,337.310 77.930 C 337.276 74.492,337.217 64.692,337.179 56.152 C 337.141 47.612,336.978 40.627,336.816 40.630 C 336.655 40.632,334.326 42.143,331.641 43.987 M286.328 109.943 C 297.488 111.701,306.770 114.520,315.820 118.900 C 322.961 122.356,330.976 127.257,330.693 127.994 C 330.584 128.279,327.316 132.185,323.431 136.673 L 316.368 144.833 313.360 145.175 L 310.352 145.518 307.560 143.848 C 288.358 132.362,262.939 129.815,247.489 137.829 C 236.971 143.284,236.126 153.666,245.487 162.423 C 251.175 167.744,257.554 171.259,281.055 182.023 C 319.692 199.721,332.643 213.078,332.574 235.156 C 332.440 278.105,269.721 298.132,217.851 271.790 C 210.655 268.135,200.431 261.040,201.010 260.102 C 203.114 256.698,215.141 243.515,216.353 243.284 C 220.269 242.539,221.520 242.821,225.227 245.286 C 254.161 264.527,296.281 261.325,300.804 239.541 C 303.265 227.683,295.287 220.412,262.960 205.052 C 243.223 195.675,235.151 191.200,227.359 185.320 C 193.000 159.390,204.946 120.147,250.058 110.755 C 259.210 108.850,276.878 108.454,286.328 109.943 " stroke="none" fill="#fb7304" fill-rule="evenodd"></path><path id="path2" d="M314.453 31.445 C 314.453 44.443,314.571 55.078,314.715 55.078 C 316.370 55.078,316.370 55.064,316.135 31.309 C 315.922 9.875,315.805 7.813,314.796 7.813 C 314.603 7.813,314.453 18.149,314.453 31.445 M17.168 201.809 C 16.953 202.375,16.880 203.161,17.005 203.557 C 17.261 204.362,314.405 390.259,315.890 390.543 C 318.032 390.952,317.969 391.666,317.969 366.944 C 317.969 354.402,318.042 344.141,318.132 344.141 C 318.222 344.141,322.790 346.953,328.284 350.391 C 333.778 353.828,338.363 356.641,338.472 356.641 C 339.154 356.641,338.579 353.865,337.793 353.364 C 336.547 352.569,96.377 202.156,95.874 201.855 C 95.646 201.719,94.999 201.909,94.436 202.278 L 93.413 202.949 204.677 272.654 L 315.940 342.358 316.197 348.620 C 316.338 352.065,316.399 362.106,316.332 370.935 L 316.211 386.987 167.245 293.884 C 85.314 242.678,18.117 200.781,17.919 200.781 C 17.721 200.781,17.383 201.244,17.168 201.809 " stroke="none" fill="#220404" fill-rule="evenodd"></path><path id="path3" d="M261.914 109.238 C 261.270 109.313,259.072 109.562,257.031 109.791 C 218.106 114.161,197.129 142.962,213.182 169.997 C 220.436 182.214,232.351 190.465,264.720 205.687 C 292.805 218.895,301.132 225.858,301.163 236.160 C 301.235 260.681,255.833 266.107,224.869 245.277 L 221.419 242.956 218.350 243.212 L 215.281 243.468 208.203 251.811 C 204.310 256.400,201.232 260.328,201.363 260.540 C 203.766 264.428,220.205 273.520,232.227 277.609 C 283.683 295.112,336.493 270.744,332.452 231.364 C 330.351 210.888,317.338 198.750,278.516 181.056 C 255.197 170.428,246.443 165.103,242.077 158.892 C 224.981 134.571,275.546 123.182,308.138 144.013 C 310.113 145.275,310.345 145.330,312.630 145.078 C 316.293 144.674,316.183 144.764,323.777 135.975 L 330.894 127.739 327.459 125.501 C 309.407 113.741,281.880 106.911,261.914 109.238 " stroke="none" fill="#fcfbfb" fill-rule="evenodd"></path><path id="path4" d="M261.035 109.254 C 261.411 109.352,262.026 109.352,262.402 109.254 C 262.778 109.155,262.471 109.075,261.719 109.075 C 260.967 109.075,260.659 109.155,261.035 109.254 M276.465 109.260 C 276.948 109.353,277.739 109.353,278.223 109.260 C 278.706 109.167,278.311 109.091,277.344 109.091 C 276.377 109.091,275.981 109.167,276.465 109.260 M218.154 126.660 L 215.430 129.492 218.262 126.768 C 219.819 125.270,221.094 123.996,221.094 123.936 C 221.094 123.650,220.684 124.030,218.154 126.660 M268.657 133.089 C 269.143 133.182,269.846 133.179,270.219 133.081 C 270.593 132.983,270.195 132.907,269.336 132.911 C 268.477 132.915,268.171 132.995,268.657 133.089 M317.151 143.598 C 316.864 143.945,316.271 144.373,315.834 144.550 C 315.274 144.777,315.221 144.880,315.655 144.897 C 315.993 144.911,316.683 144.482,317.188 143.945 C 317.692 143.408,318.008 142.969,317.889 142.969 C 317.771 142.969,317.439 143.252,317.151 143.598 M238.789 149.609 C 238.789 150.791,238.862 151.274,238.952 150.684 C 239.041 150.093,239.041 149.126,238.952 148.535 C 238.862 147.944,238.789 148.428,238.789 149.609 M207.543 150.977 C 207.545 152.266,207.618 152.746,207.705 152.044 C 207.792 151.342,207.790 150.287,207.701 149.700 C 207.612 149.113,207.541 149.688,207.543 150.977 M244.336 161.719 C 245.175 162.578,245.950 163.281,246.057 163.281 C 246.164 163.281,245.566 162.578,244.727 161.719 C 243.887 160.859,243.113 160.156,243.006 160.156 C 242.898 160.156,243.497 160.859,244.336 161.719 M321.094 207.153 C 321.094 207.221,321.665 207.792,322.363 208.423 L 323.633 209.570 322.486 208.301 C 321.416 207.117,321.094 206.852,321.094 207.153 M295.117 223.828 C 295.956 224.688,296.731 225.391,296.838 225.391 C 296.946 225.391,296.347 224.688,295.508 223.828 C 294.669 222.969,293.894 222.266,293.787 222.266 C 293.679 222.266,294.278 222.969,295.117 223.828 M332.520 231.836 C 332.525 232.695,332.605 233.001,332.698 232.515 C 332.792 232.029,332.788 231.326,332.690 230.952 C 332.592 230.579,332.516 230.977,332.520 231.836 M332.513 238.281 C 332.513 239.033,332.593 239.341,332.691 238.965 C 332.789 238.589,332.789 237.974,332.691 237.598 C 332.593 237.222,332.513 237.529,332.513 238.281 M295.880 248.535 L 294.336 250.195 295.996 248.651 C 297.540 247.215,297.836 246.875,297.540 246.875 C 297.476 246.875,296.729 247.622,295.880 248.535 M320.103 264.551 L 318.164 266.602 320.215 264.663 C 322.120 262.862,322.445 262.500,322.153 262.500 C 322.091 262.500,321.169 263.423,320.103 264.551 M259.668 283.479 C 260.151 283.572,260.942 283.572,261.426 283.479 C 261.909 283.386,261.514 283.310,260.547 283.310 C 259.580 283.310,259.185 283.386,259.668 283.479 M270.806 283.483 C 271.400 283.573,272.279 283.571,272.759 283.478 C 273.240 283.385,272.754 283.312,271.680 283.315 C 270.605 283.318,270.212 283.394,270.806 283.483 " stroke="none" fill="#fcaf8b" fill-rule="evenodd"></path></g></svg>